:SAMPLES-PER-SECOND 24
:FULLY-SPECIFIED
:DEGREES
80
root  15.0494 37.695 16.6717 11.5885 32.8886 4.94653
RightUpLeg  -40.2936 -27.5748 15.589
RightLeg  13.0625 -35.8554 1.12071
RightFoot  4.47495 3.10454 -21.838
RightToes  -2.08645e-008 3.77894e-005 6.81332e-007
Spine  2.41023 -7.59418 -8.58265
Spine1  10.0993 -10.7963 12.4424
HEad  -28.1675 -4.12602 -5.05591
LeftShoulder1  6.64776 -12.7232 -34.9459
LeftArm  13.5178 4.03655 -30.1711
LeftForeArm  149.997 -76.9399 -134.702
LeftHand  -0.428665 -3.07902 6.11981
RightShoulder  3.48619 6.2747 29.7346
RightArm  -0.0776268 -27.9033 28.681
RightForeArm  30.4741 57.4669 14.9928
RightHand  -1.19029 7.17055 -11.3009
LeftUpLeg  7.27394 11.5592 9.03887
LeftLeg  39.4784 -8.03297 -6.61656
LeftFoot  -6.05208 1.35586 -28.2124
LeftToes  1.24767e-006 1.47042e-008 1.32732e-009
81
root  14.4808 37.2534 15.0749 10.304 39.4322 3.64691
RightUpLeg  -36.7907 -19.0487 6.09291
RightLeg  8.1266 -46.0806 5.28841
RightFoot  7.69772 3.84947 -22.3343
RightToes  -2.08645e-008 3.77894e-005 6.81332e-007
Spine  3.43652 -7.34505 -6.47934
Spine1  8.88207 -10.1937 10.887
HEad  -26.6192 -9.3137 -2.17494
LeftShoulder1  6.85285 -12.8132 -35.9575
LeftArm  12.1866 3.9783 -30.8208
LeftForeArm  157.217 -75.3588 -141.095
LeftHand  -0.40401 -2.52157 6.14287
RightShoulder  3.49506 6.20936 30.0736
RightArm  -1.50992 -27.5322 29.017
RightForeArm  36.2993 65.4529 21.2577
RightHand  -1.16677 7.33722 -10.9484
LeftUpLeg  8.76628 13.2835 8.48819
LeftLeg  33.9237 -6.63434 -4.42804
LeftFoot  -8.15969 0.755714 -25.5956
LeftToes  1.24767e-006 1.47042e-008 1.32732e-009
82
root  13.7349 36.634 13.2618 8.43018 45.0339 2.40918
RightUpLeg  -35.7242 -14.6846 0.376114
RightLeg  4.28116 -51.5309 7.84826
RightFoot  11.6909 4.85777 -23.1028
RightToes  -2.08645e-008 3.77894e-005 6.81332e-007
Spine  6.11025 -6.60793 -6.08537
Spine1  7.64234 -9.42534 10.5839
HEad  -27.9887 -14.3701 1.31544
LeftShoulder1  7.11934 -12.9972 -37.072
LeftArm  9.47448 3.08024 -31.9785
LeftForeArm  161.572 -74.0273 -145.134
LeftHand  -0.415744 -2.61662 6.24831
RightShoulder  3.60555 6.25114 31.0672
RightArm  -2.71554 -25.8666 28.8012
RightForeArm  46.26 73.2054 33.8341
RightHand  -1.30048 6.74775 -12.7161
LeftUpLeg  10.33 10.3645 6.18639
LeftLeg  28.0674 0.172317 0.446376
LeftFoot  -20.1446 -1.47279 -20.4962
LeftToes  1.24767e-006 1.47042e-008 1.32732e-009
83
root  12.8703 36.1411 11.4758 8.36487 49.2123 3.37201
RightUpLeg  -36.4414 -15.4382 -3.06764
RightLeg  3.87201 -46.6367 7.27282
RightFoot  17.0479 5.03738 -19.3565
RightToes  -2.08645e-008 3.77894e-005 6.81332e-007
Spine  7.82842 -5.20443 -9.00601
Spine1  9.43256 -8.74823 11.9344
HEad  -33.2398 -18.7521 5.76466
LeftShoulder1  7.5055 -13.3614 -38.3803
LeftArm  7.04591 0.570178 -33.3449
LeftForeArm  159.981 -74.133 -144.62
LeftHand  -0.522677 -2.64484 7.77274
RightShoulder  3.6497 6.24264 31.5578
RightArm  -4.9346 -22.8531 30.0884
RightForeArm  69.1807 78.7721 58.4076
RightHand  -1.35228 7.17528 -12.7824
LeftUpLeg  8.91228 4.46986 2.08131
LeftLeg  26.8591 7.10221 4.25528
LeftFoot  -29.7457 -2.61617 -17.0901
LeftToes  1.24767e-006 1.47042e-008 1.32732e-009
84
root  12.2281 36.1112 10.0943 9.12219 52.0844 4.92462
RightUpLeg  -35.7167 -16.6779 -6.52814
RightLeg  3.92344 -31.8542 6.40181
RightFoot  21.3055 1.26744 -3.85036
RightToes  -2.08645e-008 3.77894e-005 6.81332e-007
Spine  8.55037 -4.00045 -11.6047
Spine1  11.4603 -8.16292 12.8338
HEad  -37.7178 -21.5778 8.82002
LeftShoulder1  7.647 -13.5404 -38.7272
LeftArm  5.83314 1.51246 -35.0295
LeftForeArm  158.684 -74.4617 -143.677
LeftHand  -0.625913 -2.32832 9.62439
RightShoulder  3.595 6.15465 31.3307
RightArm  -5.77731 -21.3358 32.115
RightForeArm  104.534 80.427 93.0473
RightHand  -1.07256 8.02851 -9.61233
LeftUpLeg  6.9685 0.99919 -0.817414
LeftLeg  26.7175 10.1566 5.84969
LeftFoot  -31.6565 -2.36668 -14.1809
LeftToes  1.24767e-006 1.47042e-008 1.32732e-009
85
root  12.0194 36.6282 9.26558 8.64209 53.9657 4.16473
RightUpLeg  -34.1649 -17.6425 -7.86504
RightLeg  5.23409 -15.8192 4.85867
RightFoot  21.1152 -3.29813 11.8609
RightToes  -2.08645e-008 3.77894e-005 6.81332e-007
Spine  8.51418 -3.88955 -11.2652
Spine1  11.1349 -7.8664 12.5836
HEad  -38.5685 -22.696 8.76149
LeftShoulder1  7.5005 -13.445 -38.1398
LeftArm  5.8665 9.54735 -36.0957
LeftForeArm  163.288 -72.4215 -148.614
LeftHand  -0.595874 -2.02533 9.51888
RightShoulder  3.53824 6.09257 30.9764
RightArm  -2.12183 -22.6636 32.6115
RightForeArm  132.907 78.9002 121.012
RightHand  -0.804892 8.54297 -7.06561
LeftUpLeg  6.4252 -0.444616 -1.07478
LeftLeg  24.2974 10.0528 5.26349
LeftFoot  -29.9318 -2.03467 -13.4868
LeftToes  1.24767e-006 1.47042e-008 1.32732e-009
86
root  12.0593 37.7143 8.82927 8.21582 54.5605 1.89032
RightUpLeg  -35.739 -20.746 -3.65302
RightLeg  11.3821 -3.69958 1.39016
RightFoot  19.9038 -3.78906 13.993
RightToes  -2.08645e-008 3.77894e-005 6.81332e-007
Spine  6.7353 -4.34212 -9.53144
Spine1  10.3654 -7.88636 12.0352
HEad  -38.0025 -22.6497 8.36461
LeftShoulder1  7.29635 -13.264 -37.4275
LeftArm  7.74603 20.5383 -35.6426
LeftForeArm  168.731 -68.8902 -154.676
LeftHand  -0.525179 -1.91165 8.53826
RightShoulder  3.48014 6.04119 30.5605
RightArm  4.34229 -25.1749 32.4018
RightForeArm  146.008 76.8172 134.223
RightHand  -0.922358 8.81506 -7.89438
LeftUpLeg  5.48344 -0.10386 0.410167
LeftLeg  20.7654 9.10399 4.12841
LeftFoot  -23.9965 -1.33918 -13.3215
LeftToes  1.24767e-006 1.47042e-008 1.32732e-009
87
root  12.1564 38.9779 8.74828 9.13916 55.0527 0.265198
RightUpLeg  -36.6964 -19.1365 -2.0373
RightLeg  19.2038 -0.203911 -0.485855
RightFoot  18.5956 -2.64178 10.345
RightToes  -2.08645e-008 3.77894e-005 6.81332e-007
Spine  4.13934 -5.07769 -8.4951
Spine1  9.29968 -8.20518 11.5396
HEad  -36.5114 -22.1999 9.18023
LeftShoulder1  7.08839 -13.0665 -36.7152
LeftArm  10.1361 30.161 -33.1773
LeftForeArm  173.278 -65.781 -158.594
LeftHand  -0.475435 -1.97385 7.68434
RightShoulder  3.48757 6.06235 30.5569
RightArm  9.85688 -28.0764 32.3958
RightForeArm  149.029 76.097 137.313
RightHand  -0.710289 9.41245 -5.94588
LeftUpLeg  2.98789 4.78864 3.39944
LeftLeg  18.689 2.68992 1.31776
LeftFoot  -15.1191 -0.351637 -13.9538
LeftToes  1.24767e-006 1.47042e-008 1.32732e-009
88
root  12.189 39.9749 8.83313 9.57776 56.8325 -1.24347
RightUpLeg  -34.8751 -15.3833 -2.93367
RightLeg  24.9364 2.34188 0.997483
RightFoot  15.1422 -2.15623 9.61439
RightToes  -2.08645e-008 3.77894e-005 6.81332e-007
Spine  3.59633 -5.86356 -7.93247
Spine1  6.40581 -8.7239 11.8293
HEad  -34.2899 -22.0021 10.0664
LeftShoulder1  6.91812 -12.9279 -36.0582
LeftArm  11.939 36.7468 -29.3616
LeftForeArm  175.697 -63.2633 -161.014
LeftHand  -0.350416 -2.51777 5.368
RightShoulder  3.59905 6.16231 31.3426
RightArm  13.0849 -31.4783 31.4282
RightForeArm  148.932 75.6132 138.751
RightHand  -0.592425 9.70116 -4.94368
LeftUpLeg  -0.36481 8.87148 7.38947
LeftLeg  20.2462 -9.13063 -3.43495
LeftFoot  -8.10057 0.651045 -20.4355
LeftToes  1.24767e-006 1.47042e-008 1.32732e-009
89
root  12.157 40.4827 8.83808 8.44434 58.6234 -3.00562
RightUpLeg  -32.1228 -13.7714 -2.38785
RightLeg  28.1667 5.02626 2.6825
RightFoot  11.4209 -1.60064 8.34537
RightToes  -2.08645e-008 3.77894e-005 6.81332e-007
Spine  4.42301 -6.03298 -7.59084
Spine1  4.42933 -8.94385 12.8237
HEad  -34.1759 -22.2843 11.2779
LeftShoulder1  6.77556 -12.8538 -35.3921
LeftArm  12.8756 38.8327 -26.9949
LeftForeArm  174.322 -61.8547 -161.945
LeftHand  -0.199398 -3.39538 2.89016
RightShoulder  3.67488 6.19183 32.0182
RightArm  14.264 -33.6376 30.0687
RightForeArm  151.165 74.3388 142.562
RightHand  -0.447699 9.69778 -3.83613
LeftUpLeg  -2.2658 5.2964 10.5973
LeftLeg  20.8756 -12.0822 -4.67269
LeftFoot  -5.50737 1.30005 -24.5539
LeftToes  1.24767e-006 1.47042e-008 1.32732e-009
90
root  12.1914 40.4536 8.89527 8.11792 58.8495 -3.31036
RightUpLeg  -28.9965 -13.4318 -1.61828
RightLeg  27.7476 3.88803 1.9891
RightFoot  6.88226 -0.780326 5.15646
RightToes  -2.08645e-008 3.77894e-005 6.81332e-007
Spine  3.62586 -5.78066 -9.03025
Spine1  5.18136 -8.9134 13.5903
HEad  -35.6147 -22.5598 12.6385
LeftShoulder1  6.59566 -12.7109 -34.6606
LeftArm  12.2738 37.856 -27.4371
LeftForeArm  172.694 -61.6376 -161.946
LeftHand  -0.186129 -3.67032 2.64443
RightShoulder  3.6377 6.11358 31.9397
RightArm  14.0498 -33.1042 29.6364
RightForeArm  153.719 73.2028 145.564
RightHand  -0.351915 9.16042 -3.19405
LeftUpLeg  -1.60217 -1.17543 11.7843
LeftLeg  17.3326 0.0242084 0.345547
LeftFoot  -4.21681 1.2042 -18.794
LeftToes  1.24767e-006 1.47042e-008 1.32732e-009
91
root  12.2812 39.7819 8.99322 8.96118 57.9779 -2.8772
RightUpLeg  -27.5552 -12.6817 -1.09816
RightLeg  26.3371 1.62239 0.644572
RightFoot  -0.191402 -0.178724 1.80234
RightToes  -2.08645e-008 3.77894e-005 6.81332e-007
Spine  2.48396 -5.70012 -11.385
Spine1  5.14496 -8.99081 14.7466
HEad  -35.8497 -22.0993 12.3385
LeftShoulder1  6.50298 -12.5507 -34.4934
LeftArm  10.5209 36.4781 -28.7083
LeftForeArm  173.229 -61.1201 -162.36
LeftHand  -0.296497 -3.12968 4.2853
RightShoulder  3.57293 6.01645 31.6437
RightArm  13.757 -30.5289 29.4
RightForeArm  154.309 72.666 146.75
RightHand  -0.260367 8.96968 -2.4927
LeftUpLeg  -0.645961 -2.29773 12.3947
LeftLeg  14.8238 11.1122 4.43877
LeftFoot  -4.19731 0.959477 -14.9463
LeftToes  1.24767e-006 1.47042e-008 1.32732e-009
92
root  12.2804 38.687 8.87048 9.08789 55.734 -2.87622
RightUpLeg  -29.7864 -9.22015 -1.27968
RightLeg  30.3445 -0.674618 -0.691415
RightFoot  -6.58036 -0.0114607 -0.794643
RightToes  -2.08645e-008 3.77894e-005 6.81332e-007
Spine  3.01514 -5.25357 -12.1597
Spine1  3.91438 -8.47832 15.0351
HEad  -36.609 -20.8144 11.1691
LeftShoulder1  6.75607 -12.6847 -35.6987
LeftArm  8.3107 32.8996 -28.7768
LeftForeArm  173.748 -60.9076 -162.575
LeftHand  -0.431627 -1.94945 7.03829
RightShoulder  3.56363 6.00595 31.5875
RightArm  12.4893 -25.6377 30.2452
RightForeArm  152.264 73.6359 144.42
RightHand  -0.396765 9.04539 -3.57028
LeftUpLeg  0.318162 0.0192922 13.2291
LeftLeg  15.9405 11.185 4.34911
LeftFoot  -9.99792 0.262753 -21.0438
LeftToes  1.24767e-006 1.47042e-008 1.32732e-009
93
root  12.2619 37.7071 8.60251 7.57007 51.439 -2.84631
RightUpLeg  -32.3421 -3.51491 -2.32699
RightLeg  37.2327 -2.33414 -2.17728
RightFoot  -9.97989 -0.0528764 -1.03022
RightToes  -2.08645e-008 3.77894e-005 6.81332e-007
Spine  3.25524 -4.32209 -10.9977
Spine1  5.41235 -7.15065 12.1245
HEad  -38.7772 -19.3565 11.1841
LeftShoulder1  7.3815 -13.1971 -38.0837
LeftArm  4.83953 25.3258 -27.1913
LeftForeArm  172.561 -63.7359 -160.317
LeftHand  -0.533569 -0.829533 10.0983
RightShoulder  3.67545 6.18765 32.0403
RightArm  9.51755 -19.4341 33.5337
RightForeArm  144.084 76.8888 133.401
RightHand  -0.610398 9.10224 -5.26559
LeftUpLeg  3.4956 2.65239 12.6807
LeftLeg  17.4263 9.5588 3.82736
LeftFoot  -17.7559 -1.27201 -24.3442
LeftToes  1.24767e-006 1.47042e-008 1.32732e-009
